# xmcd
#
# Track frame offsets:
#	150
#	13182
#	25937
#	42135
#	54318
#	74045
#	86765
#	98973
#
# Disc length: 1483 seconds
#
# Revision: 0
# Processed by: cddbd v1.5.1PL2 Copyright (c) Steve Scherf et al.
# Submitted via: dBpowerAMP V4.0
#
DISCID=6705c908
DTITLE=Bill Anderson - Still
DYEAR=2005
DGENRE=Country
TTITLE0=Still
TTITLE1=Po' Folks
TTITLE2=Mama Sang ASong
TTITLE3=Bright Lights And Country Music
TTITLE4=Golden Guitar
TTITLE5=I Love You Drops
TTITLE6=Three A.M.
TTITLE7=Tips Of My Fingers
EXTD=
EXTT0=
EXTT1=
EXTT2=
EXTT3=
EXTT4=
EXTT5=
EXTT6=
EXTT7=
PLAYORDER=
